<?xml version="1.0" standalone="no"?>
<!DOCTYPE svg PUBLIC "-//W3C//DTD SVG 20010904//EN"
 "http://www.w3.org/TR/2001/REC-SVG-20010904/DTD/svg10.dtd">
<svg version="1.0" xmlns="http://www.w3.org/2000/svg"
 width="600.000000pt" height="600.000000pt" viewBox="0 0 600.000000 600.000000"
 preserveAspectRatio="xMidYMid meet">
<metadata>
Created by potrace 1.16, written by Peter Selinger 2001-2019
</metadata>
<g transform="translate(0.000000,600.000000) scale(0.100000,-0.100000)"
fill="#000000" stroke="none">
<path d="M2985 5850 c-44 -4 -102 -15 -129 -25 -54 -20 -178 -83 -186 -94 -3
-5 -23 -19 -46 -34 -38 -23 -155 -134 -198 -187 -26 -32 -62 -117 -70 -165
l-7 -40 -447 0 c-411 0 -452 -2 -504 -19 -32 -10 -58 -22 -58 -25 0 -3 -29
-22 -65 -40 -36 -19 -65 -38 -65 -42 0 -5 -12 -15 -27 -23 -16 -8 -42 -27 -59
-43 -29 -25 -89 -76 -128 -107 -24 -19 -81 -109 -105 -166 -21 -47 -25 -76
-29 -201 -4 -152 11 -253 43 -289 8 -9 15 -21 15 -26 0 -18 53 -66 89 -81 20
-9 78 -30 128 -47 l93 -32 -72 -35 c-39 -19 -83 -46 -97 -61 -14 -16 -31 -28
-38 -28 -6 0 -13 -3 -15 -7 -5 -12 -66 -53 -77 -53 -5 0 -16 -9 -24 -20 -7
-11 -35 -36 -60 -55 -26 -20 -47 -41 -47 -47 0 -5 -18 -32 -40 -58 -22 -26
-40 -54 -40 -63 0 -8 -6 -20 -13 -26 -8 -6 -20 -30 -27 -53 -8 -24 -17 -48
-21 -53 -4 -6 -18 -57 -31 -115 -22 -100 -23 -126 -26 -585 -2 -300 2 -583 10
-755 7 -151 11 -345 10 -431 -3 -102 0 -164 7 -178 23 -43 63 -45 666 -46 576
0 1145 12 1145 25 0 13 228 21 810 30 326 5 599 13 630 19 101 20 224 33 300
33 41 0 272 -4 513 -7 449 -7 516 -5 542 21 18 19 21 244 5 388 -46 402 -90
703 -119 812 -5 21 -20 77 -32 124 -11 47 -25 93 -30 102 -5 10 -9 23 -9 30 0
22 -77 254 -110 333 -5 11 -18 49 -30 85 -28 82 -105 243 -125 260 -8 7 -15
18 -15 24 0 6 -13 26 -30 44 -16 18 -30 36 -30 39 0 3 -14 22 -30 42 -17 20
-36 42 -42 50 -98 120 -164 191 -179 191 -5 0 -9 5 -9 10 0 15 -180 189 -202
196 -10 3 -18 11 -18 19 0 7 -17 24 -37 36 -21 13 -42 27 -48 32 -5 4 -19 14
-30 22 -19 14 -18 14 12 15 17 0 44 5 60 11 15 6 48 14 73 19 152 29 258 103
303 209 33 80 46 131 47 176 1 47 2 49 16 30 13 -18 33 -21 174 -29 l160 -10
0 -62 c0 -35 5 -86 11 -114 l11 -50 255 0 255 0 -4 109 -3 109 175 4 c198 4
223 11 241 66 16 48 7 182 -14 213 -9 13 -17 40 -17 61 l0 38 -195 0 -195 0 0
115 0 115 -260 0 -260 0 0 -115 0 -115 -150 0 -150 0 0 -30 c0 -23 -4 -30 -20
-30 -15 0 -20 -7 -20 -27 0 -41 -9 -23 -21 43 -6 32 -14 64 -19 69 -4 6 -11
26 -15 45 -4 19 -13 44 -20 55 -7 11 -15 34 -19 51 -4 17 -18 42 -32 54 -13
13 -24 27 -24 32 0 10 -68 77 -100 98 -12 8 -32 25 -44 37 -11 12 -49 36 -83
53 -35 17 -63 35 -63 41 0 5 -10 9 -22 9 -13 0 -68 16 -123 36 -95 34 -126 41
-275 64 -73 11 -653 11 -775 0z m490 -180 c32 -11 66 -20 77 -20 10 0 18 -4
18 -10 0 -5 12 -10 26 -10 27 0 133 -46 149 -65 6 -7 26 -22 46 -33 19 -12 47
-32 60 -45 14 -12 37 -32 50 -42 29 -23 88 -105 108 -150 31 -72 72 -208 77
-263 6 -57 -13 -147 -38 -177 -4 -5 -8 -16 -8 -25 0 -9 -9 -25 -20 -35 -11
-10 -20 -24 -20 -31 0 -31 -169 -124 -226 -124 -17 0 -49 -7 -70 -16 -72 -30
-251 -55 -263 -36 -3 5 -42 19 -86 31 -141 39 -155 44 -155 53 0 4 -5 8 -12 8
-7 0 -47 16 -89 36 -70 33 -81 42 -116 98 -22 33 -55 97 -73 141 -30 73 -33
90 -34 186 -1 71 4 115 13 135 7 16 18 40 24 54 12 29 82 117 112 142 11 9 40
35 65 57 24 23 50 41 56 41 7 0 14 6 17 13 2 6 33 27 68 46 35 19 69 40 77 47
20 20 100 17 167 -6z m-1269 -567 l141 -4 6 -87 c6 -94 22 -153 68 -248 40
-82 96 -149 142 -170 35 -16 38 -20 33 -48 -8 -41 -42 -108 -87 -177 -41 -62
-85 -89 -143 -89 -20 0 -36 -5 -36 -11 0 -7 -79 -9 -252 -7 l-253 4 -140 48
c-77 27 -153 55 -169 63 -60 31 -108 103 -127 193 -10 45 -8 59 13 118 39 113
86 174 208 272 24 19 51 42 60 50 26 25 95 70 108 70 6 0 15 6 19 14 4 8 32
26 61 39 l54 25 76 -26 c64 -21 101 -26 218 -29z m1330 -738 c36 -19 74 -43
83 -53 9 -10 32 -28 51 -40 19 -12 50 -37 69 -56 18 -20 42 -38 52 -41 10 -4
19 -12 19 -19 0 -7 18 -25 40 -42 22 -16 40 -32 40 -36 0 -3 41 -47 90 -97 50
-51 90 -96 90 -101 0 -5 14 -19 30 -32 17 -12 30 -27 30 -33 0 -5 20 -33 45
-62 25 -28 45 -56 45 -62 0 -6 4 -11 9 -11 5 0 13 -10 16 -22 4 -13 15 -32 25
-43 25 -28 97 -170 106 -209 3 -17 10 -35 14 -41 5 -5 18 -39 29 -75 12 -36
26 -74 31 -85 12 -26 75 -224 94 -295 8 -30 24 -91 36 -135 29 -105 48 -198
66 -320 42 -278 88 -685 79 -694 -4 -3 -214 -5 -468 -3 -450 3 -467 2 -657
-23 -263 -35 -407 -44 -716 -45 l-262 0 -7 183 c-8 206 1 333 45 652 6 44 15
107 20 140 4 33 13 85 18 115 6 30 20 118 32 195 24 167 59 367 80 470 4 22
13 72 20 110 6 39 15 81 20 95 4 14 13 45 20 70 29 102 64 198 91 248 16 29
29 59 29 65 0 7 14 27 30 45 17 18 30 37 30 41 0 5 20 30 45 56 24 27 46 51
47 55 5 13 113 90 125 90 7 0 16 7 21 15 4 9 28 26 53 40 64 35 113 32 195
-10z m-1470 -300 c4 -8 10 -15 15 -15 13 0 89 -50 118 -77 13 -13 28 -23 32
-23 5 0 9 -15 9 -34 0 -47 9 -66 30 -66 14 0 20 -11 25 -42 4 -24 12 -52 17
-62 7 -13 7 -37 -1 -75 -12 -55 -18 -89 -39 -201 -6 -30 -18 -91 -26 -135 -9
-44 -16 -92 -16 -105 0 -14 -9 -74 -19 -135 -28 -159 -42 -241 -52 -315 -4
-36 -13 -99 -19 -140 -41 -265 -52 -435 -48 -706 3 -179 1 -264 -7 -271 -6 -6
-142 -13 -330 -19 -354 -10 -559 -8 -585 6 -15 8 -18 35 -23 217 -3 114 -11
300 -17 413 -6 113 -9 381 -7 595 3 323 6 405 21 480 10 50 24 100 32 112 8
12 14 28 14 34 0 23 60 138 90 172 16 19 30 39 30 45 0 13 126 125 151 134 11
4 22 14 25 23 4 8 13 15 21 15 7 0 25 11 39 25 31 31 97 70 209 122 88 41 92
42 198 43 87 0 109 -3 113 -15z"/>
</g>
</svg>
