<?xml version="1.0" standalone="no"?>
<!DOCTYPE svg PUBLIC "-//W3C//DTD SVG 20010904//EN"
 "http://www.w3.org/TR/2001/REC-SVG-20010904/DTD/svg10.dtd">
<svg version="1.0" xmlns="http://www.w3.org/2000/svg"
 width="450.000000pt" height="450.000000pt" viewBox="0 0 450.000000 450.000000"
 preserveAspectRatio="xMidYMid meet">

<g transform="translate(0.000000,450.000000) scale(0.100000,-0.100000)"
fill="#000000" stroke="none">
<path d="M755 2890 l-640 -640 640 -640 640 -640 152 152 153 153 -382 382
-383 383 1618 0 1617 0 0 640 0 640 -212 -2 -213 -3 -3 -427 -2 -428 -1402 0
c-771 0 -1398 3 -1394 8 3 4 175 176 381 382 l375 375 -153 153 -152 152 -640
-640z"/>
</g>
</svg>
