<?xml version="1.0" standalone="no"?>
<!DOCTYPE svg PUBLIC "-//W3C//DTD SVG 20010904//EN"
 "http://www.w3.org/TR/2001/REC-SVG-20010904/DTD/svg10.dtd">
<svg version="1.0" xmlns="http://www.w3.org/2000/svg"
 width="600.000000pt" height="600.000000pt" viewBox="0 0 600.000000 600.000000"
 preserveAspectRatio="xMidYMid meet">
<metadata>
Created by potrace 1.16, written by Peter Selinger 2001-2019
</metadata>
<g transform="translate(0.000000,600.000000) scale(0.100000,-0.100000)"
fill="#000000" stroke="none">
<path d="M2140 3901 l-45 -27 -3 -102 c-2 -85 1 -110 18 -154 46 -115 110
-241 207 -412 l102 -180 -57 -41 c-31 -23 -64 -44 -72 -47 -19 -7 -544 -417
-636 -496 -17 -15 -52 -45 -79 -67 -26 -22 -69 -61 -95 -87 l-46 -47 -75 75
c-41 41 -94 90 -119 108 -60 43 -179 91 -193 77 -6 -6 -23 -11 -37 -11 -15 0
-37 -11 -50 -25 -13 -14 -31 -25 -40 -25 -17 0 -90 -69 -90 -86 0 -5 59 -68
131 -139 72 -72 198 -201 280 -287 l150 -157 -188 -188 c-104 -103 -214 -218
-245 -254 -54 -64 -189 -193 -551 -528 -97 -90 -177 -169 -177 -175 0 -16 342
-356 358 -356 23 0 583 546 952 927 63 66 141 139 173 162 l57 43 77 -68 c145
-131 328 -284 338 -284 3 0 38 -22 78 -48 139 -92 159 -93 247 -14 l64 58 -57
75 c-31 41 -70 91 -87 111 l-32 38 29 45 c15 25 45 68 66 97 20 28 37 54 37
58 0 3 28 45 63 93 34 48 75 109 91 135 16 26 39 63 51 82 12 19 36 58 53 85
17 28 37 57 44 65 8 8 25 32 38 52 14 21 28 38 32 38 4 0 16 17 27 38 10 20
31 50 45 65 l27 29 23 -24 c12 -12 33 -42 46 -65 13 -24 27 -43 31 -43 3 0 19
-19 34 -42 15 -23 32 -47 37 -52 6 -6 53 -79 106 -163 54 -83 148 -227 210
-319 61 -91 112 -169 112 -173 0 -3 -19 -29 -43 -56 -24 -28 -63 -77 -87 -109
l-44 -60 65 -58 c87 -79 107 -78 246 14 40 26 75 48 78 48 10 0 193 153 338
284 l77 68 57 -43 c32 -23 110 -96 173 -162 370 -383 929 -927 953 -927 15 0
357 341 357 356 0 6 -80 85 -177 175 -362 335 -497 464 -551 528 -31 36 -141
151 -245 254 l-188 188 150 157 c82 86 208 215 280 287 72 71 131 134 131 140
0 17 -74 85 -91 85 -9 0 -26 11 -39 25 -13 14 -35 25 -50 25 -14 0 -31 5 -37
11 -14 14 -133 -34 -193 -77 -25 -18 -79 -67 -120 -108 l-74 -76 -26 28 c-37
40 -229 203 -361 307 -63 49 -187 147 -275 216 -89 70 -172 133 -185 140 -13
7 -49 31 -81 54 l-56 41 75 129 c80 137 213 393 213 410 0 5 8 24 17 40 13 23
17 57 17 153 l1 123 -48 27 c-39 21 -52 24 -65 14 -9 -6 -33 -19 -52 -29 -19
-9 -63 -36 -96 -60 -34 -24 -65 -43 -69 -43 -4 0 -30 -16 -56 -35 -27 -19 -52
-35 -55 -35 -3 0 -43 -27 -88 -60 -46 -33 -86 -60 -90 -60 -5 0 -20 -8 -34
-19 -15 -10 -44 -28 -64 -40 -21 -11 -55 -31 -75 -42 -21 -12 -56 -34 -77 -50
-39 -29 -40 -29 -60 -10 -19 18 -154 99 -233 141 -18 10 -65 41 -105 69 -40
29 -104 72 -143 96 -38 24 -101 64 -140 89 -38 24 -87 52 -107 62 -21 10 -38
21 -38 26 0 14 -24 7 -70 -21z m314 -344 c23 -19 66 -47 96 -64 30 -16 75 -43
100 -60 25 -17 76 -50 113 -73 l69 -44 -24 -18 c-12 -9 -27 -18 -31 -18 -5 0
-56 -34 -113 -76 l-105 -77 -29 29 c-59 61 -75 108 -80 239 -4 100 -9 126 -27
158 -12 20 -20 37 -16 37 3 0 24 -15 47 -33z m1117 -14 c-16 -31 -21 -60 -23
-153 -4 -127 -14 -158 -73 -224 l-34 -39 -73 52 c-40 29 -101 70 -136 93 l-62
40 54 39 c30 22 58 39 61 39 4 0 35 19 69 43 33 23 81 53 106 65 25 13 63 38
85 56 22 19 42 33 44 31 1 -2 -6 -21 -18 -42z m-480 -392 c46 -27 95 -58 109
-69 14 -10 56 -40 93 -66 38 -25 64 -46 59 -46 -5 0 -38 -40 -73 -90 -34 -49
-68 -90 -73 -90 -6 0 -23 8 -38 18 l-27 18 39 62 c22 35 40 67 40 71 0 5 -23
24 -51 42 l-51 32 -31 -18 c-18 -10 -44 -29 -59 -43 -27 -25 -28 -25 -50 -6
-13 10 -25 21 -28 24 -3 3 -18 13 -33 23 -28 18 -28 18 -82 -16 l-54 -34 21
-39 c11 -21 29 -51 39 -66 19 -26 19 -26 -7 -47 -15 -12 -33 -21 -40 -21 -7 0
-38 36 -69 80 -31 44 -63 87 -71 95 -11 10 -12 15 -3 15 7 0 44 24 83 53 82
60 152 107 163 107 5 1 26 14 48 30 22 16 45 29 51 30 6 0 49 -22 95 -49z
m554 -366 c199 -135 372 -265 445 -337 61 -59 181 -158 360 -295 13 -10 10
-17 -22 -50 -21 -21 -38 -43 -38 -47 0 -5 -32 -42 -70 -83 -39 -41 -75 -84
-80 -96 -20 -45 -82 -116 -103 -117 -14 0 -215 -176 -327 -286 l-105 -103
-104 182 c-100 175 -244 401 -267 422 -7 6 -34 46 -62 90 -27 44 -75 118 -106
165 -31 47 -56 87 -56 90 0 3 18 29 39 57 l37 53 49 -45 c26 -25 52 -45 57
-45 5 0 15 -6 22 -12 8 -7 24 -20 36 -28 12 -8 28 -21 36 -27 7 -7 16 -13 21
-13 5 0 28 -18 51 -39 23 -22 59 -50 79 -62 42 -26 48 -31 96 -74 19 -16 46
-39 62 -50 47 -34 88 -69 121 -102 18 -18 43 -37 56 -43 12 -5 30 -15 39 -21
13 -10 27 -5 72 22 37 22 55 39 51 48 -2 8 -62 106 -132 218 -86 138 -133 203
-144 203 -10 0 -18 4 -18 8 0 5 -11 14 -25 20 -25 11 -61 41 -124 100 -19 17
-37 32 -40 32 -6 0 -33 22 -93 76 -15 13 -32 24 -38 24 -5 0 -10 4 -10 9 0 5
-13 14 -30 21 -36 15 -37 20 -5 54 14 15 25 30 25 35 0 4 14 23 31 42 17 19
40 51 51 73 l19 38 22 -20 c12 -11 67 -50 122 -87z m-1122 63 c10 -18 33 -51
52 -73 20 -22 38 -48 41 -57 3 -10 9 -18 14 -18 4 0 10 -7 14 -15 4 -10 -8
-24 -36 -41 -42 -27 -152 -114 -198 -157 -45 -43 -114 -94 -153 -115 -32 -17
-60 -54 -168 -227 -71 -114 -129 -210 -129 -215 0 -11 94 -70 112 -70 9 0 21
6 27 14 7 8 22 17 34 20 12 3 42 26 66 51 24 26 67 61 96 80 28 18 60 43 71
56 10 13 46 42 79 64 33 22 76 55 96 74 20 18 46 38 57 45 43 24 162 108 169
119 5 7 17 20 29 30 21 17 22 17 59 -38 l38 -55 -26 -40 c-15 -22 -39 -58 -54
-80 -43 -62 -80 -121 -102 -160 -11 -19 -32 -49 -48 -67 -26 -29 -43 -53 -115
-166 -14 -23 -78 -131 -140 -239 l-115 -197 -74 76 c-81 82 -343 313 -356 313
-21 1 -83 72 -103 117 -5 12 -41 55 -80 96 -38 41 -70 78 -70 83 0 4 -17 25
-37 46 -22 23 -33 41 -28 46 6 5 73 58 150 118 193 150 235 187 235 204 0 5 3
10 8 10 4 0 25 16 47 36 47 41 312 234 323 234 4 0 45 29 92 65 47 35 90 64
95 64 6 1 18 -14 28 -31z"/>
</g>
</svg>
