<?xml version="1.0" standalone="no"?>
<!DOCTYPE svg PUBLIC "-//W3C//DTD SVG 20010904//EN"
 "http://www.w3.org/TR/2001/REC-SVG-20010904/DTD/svg10.dtd">
<svg version="1.0" xmlns="http://www.w3.org/2000/svg"
 width="200.000000pt" height="200.000000pt" viewBox="0 0 200.000000 200.000000"
 preserveAspectRatio="xMidYMid meet">
<metadata>
Created by potrace 1.16, written by Peter Selinger 2001-2019
</metadata>
<g transform="translate(0.000000,200.000000) scale(0.100000,-0.100000)"
fill="#000000" stroke="none">
<path d="M400 1431 l0 -199 282 -158 c155 -86 291 -159 302 -161 13 -2 128 58
301 155 l280 159 3 201 c1 111 -1 202 -5 202 -5 0 -136 -72 -293 -159 l-284
-160 -31 18 c-96 59 -535 301 -544 301 -8 0 -11 -60 -11 -199z"/>
<path d="M400 891 l0 -199 282 -158 c155 -86 291 -159 302 -161 13 -2 128 58
301 155 l280 159 3 201 c1 111 -1 202 -5 202 -5 0 -136 -72 -293 -159 l-284
-160 -31 18 c-96 59 -535 301 -544 301 -8 0 -11 -60 -11 -199z"/>
</g>
</svg>
