<?xml version="1.0" standalone="no"?>
<!DOCTYPE svg PUBLIC "-//W3C//DTD SVG 20010904//EN"
 "http://www.w3.org/TR/2001/REC-SVG-20010904/DTD/svg10.dtd">
<svg version="1.0" xmlns="http://www.w3.org/2000/svg"
 width="600.000000pt" height="600.000000pt" viewBox="0 0 600.000000 600.000000"
 preserveAspectRatio="xMidYMid meet">
<metadata>
Created by potrace 1.16, written by Peter Selinger 2001-2019
</metadata>
<g transform="translate(0.000000,600.000000) scale(0.100000,-0.100000)"
fill="#000000" stroke="none">
<path d="M2665 4374 c-149 -25 -184 -39 -239 -103 -12 -13 -28 -31 -37 -40 -9
-9 -31 -38 -49 -65 -18 -27 -41 -57 -52 -68 -25 -25 -108 -210 -140 -313 -25
-82 -48 -248 -48 -347 l0 -108 -26 0 c-39 0 -59 -15 -92 -69 -48 -77 -63 -185
-61 -419 l1 -195 -170 -153 c-94 -85 -175 -154 -181 -154 -5 0 -34 -22 -64
-50 -30 -27 -59 -50 -65 -50 -6 0 -34 -22 -64 -48 -29 -27 -79 -69 -110 -93
-172 -134 -652 -572 -646 -589 2 -4 22 -29 46 -55 51 -54 43 -56 164 48 41 34
90 76 110 92 20 17 91 76 157 133 66 56 123 102 127 102 4 0 34 24 68 53 34
29 77 64 96 77 41 29 104 85 421 383 131 122 239 227 241 232 2 6 -1 92 -6
193 -11 210 2 301 52 382 35 56 61 62 102 21 29 -28 30 -33 30 -115 l0 -86 58
0 c57 0 57 0 82 43 14 23 39 68 54 101 39 80 112 152 160 158 41 5 102 -18
125 -46 19 -23 2 -59 -44 -88 -35 -23 -35 -23 -35 -99 0 -70 2 -79 26 -100 14
-13 39 -36 54 -51 16 -14 42 -34 59 -44 l31 -18 -83 -33 c-102 -41 -117 -58
-117 -132 0 -45 6 -66 28 -102 16 -24 41 -50 55 -58 15 -8 27 -18 27 -21 0 -4
-28 -11 -62 -14 -35 -4 -95 -14 -134 -22 -39 -8 -89 -15 -111 -17 -37 -2 -53
-15 -213 -167 -126 -120 -188 -188 -230 -250 -31 -47 -59 -92 -62 -100 -3 -9
-32 -55 -64 -104 -33 -48 -66 -101 -76 -117 -9 -17 -23 -38 -31 -47 -8 -9 -34
-50 -58 -91 -24 -40 -48 -81 -54 -90 -5 -9 -31 -47 -57 -83 -27 -37 -48 -71
-48 -76 0 -5 -9 -17 -19 -26 -11 -10 -48 -60 -82 -112 l-62 -95 44 -47 c24
-26 45 -48 46 -51 1 -2 85 75 186 172 122 117 190 191 205 220 12 25 29 50 37
57 8 7 15 16 15 21 0 4 30 48 68 98 37 49 81 111 97 137 17 26 37 58 45 70 8
12 30 49 49 81 18 32 49 79 67 106 19 26 34 50 34 55 0 4 20 34 44 67 25 32
50 71 57 85 22 43 64 110 70 110 3 0 21 -13 39 -30 18 -17 41 -30 50 -30 9 0
20 -4 26 -10 5 -5 32 -17 59 -26 68 -21 400 -31 499 -15 76 13 254 65 298 87
35 18 78 58 78 73 0 12 22 14 69 5 25 -5 41 -20 70 -63 21 -31 45 -72 55 -91
9 -19 36 -62 61 -95 25 -33 45 -63 45 -67 0 -5 15 -29 34 -55 18 -27 49 -74
67 -106 19 -32 41 -69 49 -81 8 -13 33 -50 54 -82 21 -32 64 -93 95 -134 70
-95 91 -126 116 -172 18 -36 365 -378 382 -378 5 0 29 20 53 45 l43 44 -62 95
c-34 52 -71 102 -82 112 -10 9 -19 21 -19 27 0 5 -22 39 -48 76 -27 36 -73
107 -102 156 -29 50 -61 99 -70 110 -10 11 -24 32 -31 47 -8 14 -40 66 -73
114 -32 48 -61 95 -64 104 -3 8 -31 53 -63 100 -41 61 -104 130 -226 247
l-169 161 -65 11 c-35 6 -115 18 -176 28 -62 10 -113 20 -113 24 0 3 12 12 27
20 14 8 39 34 55 58 22 36 28 57 28 102 0 74 -15 91 -117 132 l-83 33 31 18
c17 10 43 30 59 44 15 15 40 38 54 51 24 21 26 30 26 100 0 76 0 76 -35 99
-46 29 -63 65 -44 88 23 28 84 51 125 46 48 -6 121 -78 160 -158 15 -33 40
-78 54 -101 25 -43 25 -43 82 -43 l58 0 0 86 c0 82 1 87 30 115 41 41 67 35
102 -21 50 -81 63 -172 52 -382 -5 -101 -8 -187 -6 -193 2 -5 108 -107 236
-227 318 -297 376 -350 416 -378 19 -13 62 -48 96 -77 34 -29 64 -53 68 -53 4
0 61 -46 127 -102 66 -57 137 -116 157 -133 20 -16 73 -61 117 -99 116 -99
116 -99 173 -43 l47 47 -179 173 c-98 94 -187 177 -196 182 -10 6 -67 53 -126
105 -60 52 -129 110 -154 129 -25 19 -69 56 -98 83 -30 26 -58 48 -64 48 -6 0
-35 23 -65 50 -30 28 -59 50 -65 50 -5 0 -88 71 -185 158 l-175 158 1 196 c2
234 -13 342 -61 419 -35 58 -53 69 -106 69 l-39 0 -6 83 c-13 178 -46 428 -68
508 -22 85 -59 156 -88 173 -8 5 -26 20 -40 34 -79 79 -234 148 -477 212 -110
29 -134 32 -309 35 -104 2 -203 1 -220 -1z m370 -139 c68 -14 167 -42 222 -61
54 -20 107 -38 118 -42 30 -8 184 -110 214 -140 79 -80 104 -160 136 -435 30
-254 29 -234 7 -241 -10 -4 -28 -15 -40 -27 l-22 -20 -35 38 c-19 21 -35 41
-35 45 0 9 -76 35 -122 43 -35 5 -38 8 -38 40 l0 35 -60 0 -60 0 0 -34 c0 -33
-2 -35 -53 -50 -82 -24 -117 -69 -117 -152 0 -21 -3 -22 -37 -17 -47 7 -47 7
-34 31 6 12 11 46 11 76 l0 56 -57 0 -58 0 -29 -70 c-30 -73 -38 -84 -72 -94
-19 -6 -22 -2 -27 43 -3 27 -12 59 -19 71 -15 24 -78 56 -130 65 -34 6 -38 11
-38 36 0 29 0 29 -65 29 l-65 0 0 -35 c0 -31 -3 -35 -25 -35 -27 0 -105 -28
-105 -39 0 -3 -16 -23 -35 -44 l-35 -38 -22 21 c-12 11 -36 24 -53 29 l-30 8
1 94 c2 140 44 310 110 442 8 16 14 33 14 38 0 12 66 115 88 136 10 10 29 34
42 53 13 19 37 48 52 64 15 17 28 32 28 36 0 16 70 43 138 55 119 20 203 17
337 -10z m16 -1162 c16 -10 29 -20 29 -24 0 -3 18 -18 40 -33 23 -15 39 -30
36 -34 -4 -6 -19 -14 -99 -53 -33 -15 -94 -16 -110 0 -6 6 -17 11 -23 11 -7 0
-29 10 -50 22 l-37 22 24 18 c13 10 39 31 57 46 62 49 84 54 133 25z m69 -376
c124 -40 128 -43 93 -77 -83 -80 -243 -145 -243 -99 0 5 -14 9 -31 9 -31 0
-101 41 -152 91 -22 21 -26 29 -15 35 28 18 224 82 238 77 8 -2 58 -18 110
-36z m115 -345 l50 -7 -50 -18 c-27 -10 -57 -22 -65 -26 -8 -5 -62 -18 -120
-31 -86 -19 -124 -22 -220 -18 -63 3 -124 10 -135 16 -11 6 -41 18 -68 28 -26
9 -46 18 -44 20 4 4 141 30 192 37 50 7 407 6 460 -1z"/>
<path d="M2532 3712 c3 -56 10 -79 38 -125 l34 -57 58 0 58 0 0 55 c0 47 -6
65 -35 111 -19 30 -35 61 -35 69 0 12 -14 15 -61 15 l-61 0 4 -68z"/>
<path d="M3345 3690 c-38 -62 -59 -80 -94 -80 -19 0 -21 -6 -21 -60 l0 -60 64
0 c95 0 115 11 164 87 36 57 42 75 42 120 l0 53 -59 0 -60 0 -36 -60z"/>
</g>
</svg>
